<svg xmlns="http://www.w3.org/2000/svg" xmlns:xlink="http://www.w3.org/1999/xlink" width="500" zoomAndPan="magnify" viewBox="0 0 375 374.999991" height="500" preserveAspectRatio="xMidYMid meet" version="1.0"><defs><g/><clipPath id="8bda3c3586"><path d="M 23.210938 168.335938 L 337.398438 168.335938 L 337.398438 223.652344 L 23.210938 223.652344 Z M 23.210938 168.335938 " clip-rule="nonzero"/></clipPath></defs><g fill="#1f2122" fill-opacity="1"><g transform="translate(49.186241, 275.62857)"><g><path d="M 59.03125 2.28125 C 49.269531 2.28125 40.992188 0.832031 34.203125 -2.0625 C 27.421875 -4.957031 22.3125 -8.769531 18.875 -13.5 C 15.445312 -18.226562 13.734375 -23.414062 13.734375 -29.0625 C 13.734375 -37.601562 17.625 -41.875 25.40625 -41.875 C 25.550781 -13.957031 37.066406 0 59.953125 0 C 70.628906 0 78.863281 -3.085938 84.65625 -9.265625 C 90.457031 -15.441406 93.359375 -24.328125 93.359375 -35.921875 C 93.359375 -42.484375 92.097656 -47.972656 89.578125 -52.390625 C 87.066406 -56.816406 83.101562 -60.9375 77.6875 -64.75 C 72.269531 -68.570312 65.140625 -72.691406 56.296875 -77.109375 C 48.972656 -80.921875 42.410156 -84.8125 36.609375 -88.78125 C 30.816406 -92.75 26.238281 -97.628906 22.875 -103.421875 C 19.519531 -109.222656 17.84375 -116.625 17.84375 -125.625 C 17.84375 -137.832031 21.804688 -147.554688 29.734375 -154.796875 C 37.671875 -162.046875 48.429688 -165.671875 62.015625 -165.671875 C 70.097656 -165.671875 77.191406 -164.488281 83.296875 -162.125 C 89.398438 -159.757812 94.164062 -156.628906 97.59375 -152.734375 C 101.03125 -148.847656 102.75 -144.539062 102.75 -139.8125 C 102.75 -136.15625 101.640625 -133.296875 99.421875 -131.234375 C 97.210938 -129.171875 94.125 -128.140625 90.15625 -128.140625 C 90.15625 -140.347656 87.863281 -149.273438 83.28125 -154.921875 C 78.707031 -160.566406 71.539062 -163.390625 61.78125 -163.390625 C 52.019531 -163.390625 44.46875 -160.410156 39.125 -154.453125 C 33.789062 -148.503906 31.125 -140.191406 31.125 -129.515625 C 31.125 -122.492188 32.378906 -116.734375 34.890625 -112.234375 C 37.410156 -107.734375 41.222656 -103.804688 46.328125 -100.453125 C 51.441406 -97.097656 57.738281 -93.515625 65.21875 -89.703125 C 72.539062 -85.890625 79.363281 -82 85.6875 -78.03125 C 92.019531 -74.0625 97.171875 -69.175781 101.140625 -63.375 C 105.109375 -57.582031 107.09375 -50.109375 107.09375 -40.953125 C 107.09375 -27.992188 102.9375 -17.546875 94.625 -9.609375 C 86.3125 -1.679688 74.445312 2.28125 59.03125 2.28125 Z M 59.03125 2.28125 "/></g></g></g><g fill="#1f2122" fill-opacity="1"><g transform="translate(167.943865, 275.62857)"><g><path d="M 9.84375 0 L 9.84375 -2.28125 L 16.015625 -2.28125 C 21.960938 -2.28125 26.117188 -3.539062 28.484375 -6.0625 C 30.847656 -8.582031 32.03125 -13.347656 32.03125 -20.359375 L 32.03125 -143.46875 C 32.03125 -150.1875 30.847656 -154.800781 28.484375 -157.3125 C 26.117188 -159.832031 21.960938 -161.09375 16.015625 -161.09375 L 9.84375 -161.09375 L 9.84375 -163.390625 L 64.53125 -163.390625 C 84.050781 -163.390625 98.347656 -159.953125 107.421875 -153.078125 C 116.503906 -146.210938 121.046875 -135.613281 121.046875 -121.28125 C 121.046875 -112.425781 119.328125 -105.023438 115.890625 -99.078125 C 112.460938 -93.128906 108.003906 -88.398438 102.515625 -84.890625 C 97.023438 -81.378906 91.078125 -78.785156 84.671875 -77.109375 L 119.90625 -23.5625 C 125.550781 -15.019531 130.015625 -9.335938 133.296875 -6.515625 C 136.578125 -3.691406 139.96875 -2.28125 143.46875 -2.28125 L 145.078125 -2.28125 L 145.078125 0 L 142.78125 0 C 134.851562 0 128.710938 -0.53125 124.359375 -1.59375 C 120.015625 -2.664062 116.351562 -4.6875 113.375 -7.65625 C 110.40625 -10.632812 107.164062 -14.867188 103.65625 -20.359375 L 67.96875 -75.734375 L 47.59375 -75.734375 L 47.59375 -20.359375 C 47.59375 -13.347656 48.773438 -8.582031 51.140625 -6.0625 C 53.503906 -3.539062 57.660156 -2.28125 63.609375 -2.28125 L 69.5625 -2.28125 L 69.5625 0 Z M 47.59375 -78.03125 L 67.046875 -78.03125 C 79.253906 -78.03125 88.597656 -81.421875 95.078125 -88.203125 C 101.554688 -94.992188 104.796875 -105.640625 104.796875 -120.140625 C 104.796875 -134.328125 101.894531 -144.695312 96.09375 -151.25 C 90.300781 -157.8125 80.007812 -161.09375 65.21875 -161.09375 L 47.59375 -161.09375 Z M 47.59375 -78.03125 "/></g></g></g><g clip-path="url(#8bda3c3586)"><path fill="#fbfdfa" d="M 23.210938 168.335938 L 337.382812 168.335938 L 337.382812 223.652344 L 23.210938 223.652344 Z M 23.210938 168.335938 " fill-opacity="1" fill-rule="nonzero"/></g><g fill="#1f2122" fill-opacity="1"><g transform="translate(34.434693, 203.368378)"><g><path d="M 5.484375 0.21875 C 4.578125 0.21875 3.804688 0.0820312 3.171875 -0.1875 C 2.546875 -0.457031 2.070312 -0.8125 1.75 -1.25 C 1.4375 -1.6875 1.28125 -2.171875 1.28125 -2.703125 C 1.28125 -3.492188 1.640625 -3.890625 2.359375 -3.890625 C 2.367188 -1.296875 3.4375 0 5.5625 0 C 6.5625 0 7.328125 -0.285156 7.859375 -0.859375 C 8.398438 -1.429688 8.671875 -2.257812 8.671875 -3.34375 C 8.671875 -3.945312 8.550781 -4.453125 8.3125 -4.859375 C 8.082031 -5.273438 7.710938 -5.660156 7.203125 -6.015625 C 6.703125 -6.367188 6.046875 -6.75 5.234375 -7.15625 C 4.546875 -7.507812 3.929688 -7.867188 3.390625 -8.234375 C 2.859375 -8.609375 2.4375 -9.0625 2.125 -9.59375 C 1.8125 -10.132812 1.65625 -10.828125 1.65625 -11.671875 C 1.65625 -12.796875 2.023438 -13.695312 2.765625 -14.375 C 3.503906 -15.050781 4.503906 -15.390625 5.765625 -15.390625 C 6.515625 -15.390625 7.171875 -15.273438 7.734375 -15.046875 C 8.296875 -14.828125 8.738281 -14.535156 9.0625 -14.171875 C 9.382812 -13.816406 9.546875 -13.421875 9.546875 -12.984375 C 9.546875 -12.640625 9.441406 -12.375 9.234375 -12.1875 C 9.023438 -12 8.738281 -11.90625 8.375 -11.90625 C 8.375 -13.03125 8.160156 -13.851562 7.734375 -14.375 C 7.304688 -14.90625 6.640625 -15.171875 5.734375 -15.171875 C 4.828125 -15.171875 4.125 -14.894531 3.625 -14.34375 C 3.132812 -13.789062 2.890625 -13.019531 2.890625 -12.03125 C 2.890625 -11.375 3.003906 -10.835938 3.234375 -10.421875 C 3.472656 -10.003906 3.828125 -9.640625 4.296875 -9.328125 C 4.773438 -9.015625 5.363281 -8.679688 6.0625 -8.328125 C 6.738281 -7.972656 7.367188 -7.609375 7.953125 -7.234375 C 8.546875 -6.867188 9.023438 -6.414062 9.390625 -5.875 C 9.753906 -5.34375 9.9375 -4.648438 9.9375 -3.796875 C 9.9375 -2.597656 9.550781 -1.628906 8.78125 -0.890625 C 8.007812 -0.148438 6.910156 0.21875 5.484375 0.21875 Z M 5.484375 0.21875 "/></g></g></g><g fill="#1f2122" fill-opacity="1"><g transform="translate(53.429737, 203.368378)"><g><path d="M 7.609375 0.21875 C 6.179688 0.21875 4.988281 -0.0976562 4.03125 -0.734375 C 3.082031 -1.378906 2.375 -2.285156 1.90625 -3.453125 C 1.445312 -4.617188 1.21875 -6.007812 1.21875 -7.625 C 1.21875 -9.226562 1.453125 -10.609375 1.921875 -11.765625 C 2.398438 -12.929688 3.113281 -13.828125 4.0625 -14.453125 C 5.007812 -15.085938 6.195312 -15.40625 7.625 -15.40625 C 9.769531 -15.40625 11.367188 -14.707031 12.421875 -13.3125 C 13.472656 -11.914062 14 -10.015625 14 -7.609375 C 14 -6.035156 13.765625 -4.664062 13.296875 -3.5 C 12.828125 -2.332031 12.117188 -1.421875 11.171875 -0.765625 C 10.222656 -0.109375 9.035156 0.21875 7.609375 0.21875 Z M 7.609375 0 C 9.304688 0 10.535156 -0.625 11.296875 -1.875 C 12.054688 -3.132812 12.4375 -5.046875 12.4375 -7.609375 C 12.4375 -10.171875 12.0625 -12.070312 11.3125 -13.3125 C 10.570312 -14.5625 9.34375 -15.1875 7.625 -15.1875 C 5.96875 -15.1875 4.742188 -14.5625 3.953125 -13.3125 C 3.160156 -12.070312 2.765625 -10.171875 2.765625 -7.609375 C 2.765625 -5.046875 3.160156 -3.132812 3.953125 -1.875 C 4.742188 -0.625 5.960938 0 7.609375 0 Z M 7.609375 0 "/></g></g></g><g fill="#1f2122" fill-opacity="1"><g transform="translate(76.630881, 203.368378)"><g><path d="M 0.90625 0 L 0.90625 -0.21875 L 1.484375 -0.21875 C 2.035156 -0.21875 2.421875 -0.332031 2.640625 -0.5625 C 2.859375 -0.789062 2.96875 -1.234375 2.96875 -1.890625 L 2.96875 -13.328125 C 2.96875 -13.953125 2.859375 -14.378906 2.640625 -14.609375 C 2.421875 -14.835938 2.035156 -14.953125 1.484375 -14.953125 L 0.90625 -14.953125 L 0.90625 -15.171875 L 11.03125 -15.171875 L 11.15625 -11.5625 L 10.9375 -11.5625 L 10.875 -12.765625 C 10.832031 -13.609375 10.660156 -14.179688 10.359375 -14.484375 C 10.054688 -14.796875 9.492188 -14.953125 8.671875 -14.953125 L 4.421875 -14.953125 L 4.421875 -7.5625 L 9.71875 -7.5625 L 9.71875 -7.359375 L 4.421875 -7.359375 L 4.421875 -1.890625 C 4.421875 -1.234375 4.53125 -0.789062 4.75 -0.5625 C 4.96875 -0.332031 5.351562 -0.21875 5.90625 -0.21875 L 6.734375 -0.21875 L 6.734375 0 Z M 0.90625 0 "/></g></g></g><g fill="#1f2122" fill-opacity="1"><g transform="translate(96.751793, 203.368378)"><g><path d="M 0.90625 0 L 0.90625 -0.21875 L 1.484375 -0.21875 C 2.035156 -0.21875 2.421875 -0.332031 2.640625 -0.5625 C 2.859375 -0.789062 2.96875 -1.234375 2.96875 -1.890625 L 2.96875 -13.328125 C 2.96875 -13.953125 2.859375 -14.378906 2.640625 -14.609375 C 2.421875 -14.835938 2.035156 -14.953125 1.484375 -14.953125 L 0.90625 -14.953125 L 0.90625 -15.171875 L 6.453125 -15.171875 L 6.453125 -14.953125 L 5.90625 -14.953125 C 5.351562 -14.953125 4.96875 -14.835938 4.75 -14.609375 C 4.53125 -14.378906 4.421875 -13.9375 4.421875 -13.28125 L 4.421875 -1.890625 C 4.421875 -1.234375 4.53125 -0.789062 4.75 -0.5625 C 4.96875 -0.332031 5.351562 -0.21875 5.90625 -0.21875 L 6.453125 -0.21875 L 6.453125 0 Z M 0.90625 0 "/></g></g></g><g fill="#1f2122" fill-opacity="1"><g transform="translate(112.114288, 203.368378)"><g><path d="M -0.046875 0 L -0.046875 -0.21875 L 0.484375 -0.21875 C 0.953125 -0.21875 1.285156 -0.304688 1.484375 -0.484375 C 1.679688 -0.660156 1.878906 -1.023438 2.078125 -1.578125 L 6.796875 -15.171875 L 7.484375 -15.171875 L 12.59375 -1.296875 C 12.75 -0.859375 12.910156 -0.566406 13.078125 -0.421875 C 13.242188 -0.285156 13.515625 -0.21875 13.890625 -0.21875 L 14.234375 -0.21875 L 14.234375 0 L 9.046875 0 L 9.046875 -0.21875 L 9.6875 -0.21875 C 10.226562 -0.21875 10.585938 -0.269531 10.765625 -0.375 C 10.953125 -0.488281 11.046875 -0.679688 11.046875 -0.953125 C 11.046875 -1.140625 11.003906 -1.378906 10.921875 -1.671875 C 10.835938 -1.972656 10.757812 -2.222656 10.6875 -2.421875 L 9.5625 -5.5 L 3.703125 -5.5 L 2.640625 -2.5 C 2.578125 -2.300781 2.5 -2.050781 2.40625 -1.75 C 2.320312 -1.457031 2.28125 -1.222656 2.28125 -1.046875 C 2.28125 -0.742188 2.394531 -0.53125 2.625 -0.40625 C 2.851562 -0.28125 3.300781 -0.21875 3.96875 -0.21875 L 4.78125 -0.21875 L 4.78125 0 Z M 3.765625 -5.71875 L 9.5 -5.71875 L 7.859375 -10.265625 C 7.628906 -10.910156 7.398438 -11.570312 7.171875 -12.25 C 6.941406 -12.925781 6.75 -13.519531 6.59375 -14.03125 C 6.445312 -13.539062 6.265625 -12.984375 6.046875 -12.359375 C 5.828125 -11.742188 5.617188 -11.140625 5.421875 -10.546875 Z M 3.765625 -5.71875 "/></g></g></g><g fill="#1f2122" fill-opacity="1"><g transform="translate(134.486955, 203.368378)"><g><path d="M 0.90625 0 L 0.90625 -0.21875 L 1.671875 -0.21875 C 2.222656 -0.21875 2.609375 -0.332031 2.828125 -0.5625 C 3.054688 -0.789062 3.171875 -1.234375 3.171875 -1.890625 L 3.171875 -13.328125 C 3.171875 -13.953125 3.054688 -14.378906 2.828125 -14.609375 C 2.609375 -14.835938 2.222656 -14.953125 1.671875 -14.953125 L 0.90625 -14.953125 L 0.90625 -15.171875 L 4.203125 -15.171875 L 12.734375 -2.1875 L 12.734375 -13.28125 C 12.734375 -13.9375 12.625 -14.378906 12.40625 -14.609375 C 12.195312 -14.835938 11.804688 -14.953125 11.234375 -14.953125 L 10.515625 -14.953125 L 10.515625 -15.171875 L 15.171875 -15.171875 L 15.171875 -14.953125 L 14.453125 -14.953125 C 13.878906 -14.953125 13.484375 -14.835938 13.265625 -14.609375 C 13.046875 -14.378906 12.9375 -13.9375 12.9375 -13.28125 L 12.9375 0 L 12.515625 0 L 3.375 -13.859375 L 3.375 -1.890625 C 3.375 -1.234375 3.476562 -0.789062 3.6875 -0.5625 C 3.90625 -0.332031 4.296875 -0.21875 4.859375 -0.21875 L 5.59375 -0.21875 L 5.59375 0 Z M 0.90625 0 "/></g></g></g><g fill="#1f2122" fill-opacity="1"><g transform="translate(158.346624, 203.368378)"><g><path d="M 0.90625 0 L 0.90625 -0.21875 L 1.484375 -0.21875 C 2.035156 -0.21875 2.421875 -0.332031 2.640625 -0.5625 C 2.859375 -0.789062 2.96875 -1.234375 2.96875 -1.890625 L 2.96875 -13.328125 C 2.96875 -13.953125 2.859375 -14.378906 2.640625 -14.609375 C 2.421875 -14.835938 2.035156 -14.953125 1.484375 -14.953125 L 0.90625 -14.953125 L 0.90625 -15.171875 L 11 -15.171875 L 11.140625 -11.5625 L 10.921875 -11.5625 L 10.859375 -12.765625 C 10.816406 -13.609375 10.644531 -14.179688 10.34375 -14.484375 C 10.050781 -14.796875 9.488281 -14.953125 8.65625 -14.953125 L 4.421875 -14.953125 L 4.421875 -8.046875 L 9.6875 -8.046875 L 9.6875 -7.84375 L 4.421875 -7.84375 L 4.421875 -0.21875 L 9.265625 -0.21875 C 10.140625 -0.21875 10.734375 -0.367188 11.046875 -0.671875 C 11.359375 -0.984375 11.535156 -1.5625 11.578125 -2.40625 L 11.640625 -3.609375 L 11.859375 -3.609375 L 11.703125 0 Z M 0.90625 0 "/></g></g></g><g fill="#1f2122" fill-opacity="1"><g transform="translate(179.189808, 203.368378)"><g/></g></g><g fill="#1f2122" fill-opacity="1"><g transform="translate(191.939432, 203.368378)"><g><path d="M 0.90625 0 L 0.90625 -0.21875 L 1.484375 -0.21875 C 2.035156 -0.21875 2.421875 -0.332031 2.640625 -0.5625 C 2.859375 -0.789062 2.96875 -1.234375 2.96875 -1.890625 L 2.96875 -13.328125 C 2.96875 -13.953125 2.859375 -14.378906 2.640625 -14.609375 C 2.421875 -14.835938 2.035156 -14.953125 1.484375 -14.953125 L 0.90625 -14.953125 L 0.90625 -15.171875 L 6 -15.171875 C 7.8125 -15.171875 9.132812 -14.851562 9.96875 -14.21875 C 10.8125 -13.582031 11.234375 -12.597656 11.234375 -11.265625 C 11.234375 -10.441406 11.070312 -9.753906 10.75 -9.203125 C 10.4375 -8.648438 10.023438 -8.207031 9.515625 -7.875 C 9.003906 -7.550781 8.453125 -7.3125 7.859375 -7.15625 L 11.140625 -2.1875 C 11.660156 -1.394531 12.070312 -0.867188 12.375 -0.609375 C 12.675781 -0.347656 12.992188 -0.21875 13.328125 -0.21875 L 13.46875 -0.21875 L 13.46875 0 L 13.265625 0 C 12.523438 0 11.953125 -0.046875 11.546875 -0.140625 C 11.140625 -0.242188 10.796875 -0.429688 10.515625 -0.703125 C 10.242188 -0.984375 9.945312 -1.378906 9.625 -1.890625 L 6.3125 -7.03125 L 4.421875 -7.03125 L 4.421875 -1.890625 C 4.421875 -1.234375 4.53125 -0.789062 4.75 -0.5625 C 4.96875 -0.332031 5.351562 -0.21875 5.90625 -0.21875 L 6.453125 -0.21875 L 6.453125 0 Z M 4.421875 -7.25 L 6.21875 -7.25 C 7.351562 -7.25 8.222656 -7.5625 8.828125 -8.1875 C 9.429688 -8.820312 9.734375 -9.8125 9.734375 -11.15625 C 9.734375 -12.46875 9.460938 -13.425781 8.921875 -14.03125 C 8.390625 -14.644531 7.4375 -14.953125 6.0625 -14.953125 L 4.421875 -14.953125 Z M 4.421875 -7.25 "/></g></g></g><g fill="#1f2122" fill-opacity="1"><g transform="translate(213.228719, 203.368378)"><g><path d="M -0.046875 0 L -0.046875 -0.21875 L 0.484375 -0.21875 C 0.953125 -0.21875 1.285156 -0.304688 1.484375 -0.484375 C 1.679688 -0.660156 1.878906 -1.023438 2.078125 -1.578125 L 6.796875 -15.171875 L 7.484375 -15.171875 L 12.59375 -1.296875 C 12.75 -0.859375 12.910156 -0.566406 13.078125 -0.421875 C 13.242188 -0.285156 13.515625 -0.21875 13.890625 -0.21875 L 14.234375 -0.21875 L 14.234375 0 L 9.046875 0 L 9.046875 -0.21875 L 9.6875 -0.21875 C 10.226562 -0.21875 10.585938 -0.269531 10.765625 -0.375 C 10.953125 -0.488281 11.046875 -0.679688 11.046875 -0.953125 C 11.046875 -1.140625 11.003906 -1.378906 10.921875 -1.671875 C 10.835938 -1.972656 10.757812 -2.222656 10.6875 -2.421875 L 9.5625 -5.5 L 3.703125 -5.5 L 2.640625 -2.5 C 2.578125 -2.300781 2.5 -2.050781 2.40625 -1.75 C 2.320312 -1.457031 2.28125 -1.222656 2.28125 -1.046875 C 2.28125 -0.742188 2.394531 -0.53125 2.625 -0.40625 C 2.851562 -0.28125 3.300781 -0.21875 3.96875 -0.21875 L 4.78125 -0.21875 L 4.78125 0 Z M 3.765625 -5.71875 L 9.5 -5.71875 L 7.859375 -10.265625 C 7.628906 -10.910156 7.398438 -11.570312 7.171875 -12.25 C 6.941406 -12.925781 6.75 -13.519531 6.59375 -14.03125 C 6.445312 -13.539062 6.265625 -12.984375 6.046875 -12.359375 C 5.828125 -11.742188 5.617188 -11.140625 5.421875 -10.546875 Z M 3.765625 -5.71875 "/></g></g></g><g fill="#1f2122" fill-opacity="1"><g transform="translate(235.601376, 203.368378)"><g><path d="M 0.9375 0 L 0.9375 -0.21875 L 1.515625 -0.21875 C 2.066406 -0.21875 2.453125 -0.332031 2.671875 -0.5625 C 2.890625 -0.789062 3 -1.234375 3 -1.890625 L 3 -13.328125 C 3 -13.953125 2.890625 -14.378906 2.671875 -14.609375 C 2.453125 -14.835938 2.066406 -14.953125 1.515625 -14.953125 L 0.9375 -14.953125 L 0.9375 -15.171875 L 6.5 -15.171875 L 6.5 -14.953125 L 5.921875 -14.953125 C 5.359375 -14.953125 4.96875 -14.835938 4.75 -14.609375 C 4.539062 -14.378906 4.4375 -13.9375 4.4375 -13.28125 L 4.4375 -8.03125 L 12.109375 -8.03125 L 12.109375 -13.28125 C 12.109375 -13.9375 12 -14.378906 11.78125 -14.609375 C 11.570312 -14.835938 11.1875 -14.953125 10.625 -14.953125 L 10.046875 -14.953125 L 10.046875 -15.171875 L 15.625 -15.171875 L 15.625 -14.953125 L 15.046875 -14.953125 C 14.492188 -14.953125 14.109375 -14.835938 13.890625 -14.609375 C 13.671875 -14.378906 13.5625 -13.953125 13.5625 -13.328125 L 13.5625 -1.890625 C 13.5625 -1.234375 13.671875 -0.789062 13.890625 -0.5625 C 14.109375 -0.332031 14.492188 -0.21875 15.046875 -0.21875 L 15.625 -0.21875 L 15.625 0 L 10.046875 0 L 10.046875 -0.21875 L 10.625 -0.21875 C 11.1875 -0.21875 11.570312 -0.332031 11.78125 -0.5625 C 12 -0.789062 12.109375 -1.234375 12.109375 -1.890625 L 12.109375 -7.8125 L 4.4375 -7.8125 L 4.4375 -1.890625 C 4.4375 -1.234375 4.539062 -0.789062 4.75 -0.5625 C 4.96875 -0.332031 5.359375 -0.21875 5.921875 -0.21875 L 6.5 -0.21875 L 6.5 0 Z M 0.9375 0 "/></g></g></g><g fill="#1f2122" fill-opacity="1"><g transform="translate(260.098351, 203.368378)"><g><path d="M 0.90625 0 L 0.90625 -0.21875 L 1.78125 -0.21875 C 2.332031 -0.21875 2.71875 -0.332031 2.9375 -0.5625 C 3.15625 -0.789062 3.265625 -1.234375 3.265625 -1.890625 L 3.265625 -13.328125 C 3.265625 -13.953125 3.15625 -14.378906 2.9375 -14.609375 C 2.71875 -14.835938 2.332031 -14.953125 1.78125 -14.953125 L 0.90625 -14.953125 L 0.90625 -15.171875 L 4.421875 -15.171875 L 9.984375 -1.59375 L 15.125 -15.171875 L 18.375 -15.171875 L 18.375 -14.953125 L 17.84375 -14.953125 C 17.28125 -14.953125 16.890625 -14.835938 16.671875 -14.609375 C 16.460938 -14.378906 16.359375 -13.9375 16.359375 -13.28125 L 16.359375 -1.890625 C 16.359375 -1.234375 16.460938 -0.789062 16.671875 -0.5625 C 16.890625 -0.332031 17.28125 -0.21875 17.84375 -0.21875 L 18.375 -0.21875 L 18.375 0 L 13.03125 0 L 13.03125 -0.21875 L 13.59375 -0.21875 C 14.082031 -0.21875 14.429688 -0.332031 14.640625 -0.5625 C 14.847656 -0.789062 14.953125 -1.234375 14.953125 -1.890625 L 14.953125 -14.125 L 9.625 0 L 9.1875 0 L 3.484375 -13.921875 L 3.484375 -1.890625 C 3.484375 -1.234375 3.59375 -0.789062 3.8125 -0.5625 C 4.03125 -0.332031 4.425781 -0.21875 5 -0.21875 L 5.5 -0.21875 L 5.5 0 Z M 0.90625 0 "/></g></g></g><g fill="#1f2122" fill-opacity="1"><g transform="translate(287.696787, 203.368378)"><g><path d="M -0.046875 0 L -0.046875 -0.21875 L 0.484375 -0.21875 C 0.953125 -0.21875 1.285156 -0.304688 1.484375 -0.484375 C 1.679688 -0.660156 1.878906 -1.023438 2.078125 -1.578125 L 6.796875 -15.171875 L 7.484375 -15.171875 L 12.59375 -1.296875 C 12.75 -0.859375 12.910156 -0.566406 13.078125 -0.421875 C 13.242188 -0.285156 13.515625 -0.21875 13.890625 -0.21875 L 14.234375 -0.21875 L 14.234375 0 L 9.046875 0 L 9.046875 -0.21875 L 9.6875 -0.21875 C 10.226562 -0.21875 10.585938 -0.269531 10.765625 -0.375 C 10.953125 -0.488281 11.046875 -0.679688 11.046875 -0.953125 C 11.046875 -1.140625 11.003906 -1.378906 10.921875 -1.671875 C 10.835938 -1.972656 10.757812 -2.222656 10.6875 -2.421875 L 9.5625 -5.5 L 3.703125 -5.5 L 2.640625 -2.5 C 2.578125 -2.300781 2.5 -2.050781 2.40625 -1.75 C 2.320312 -1.457031 2.28125 -1.222656 2.28125 -1.046875 C 2.28125 -0.742188 2.394531 -0.53125 2.625 -0.40625 C 2.851562 -0.28125 3.300781 -0.21875 3.96875 -0.21875 L 4.78125 -0.21875 L 4.78125 0 Z M 3.765625 -5.71875 L 9.5 -5.71875 L 7.859375 -10.265625 C 7.628906 -10.910156 7.398438 -11.570312 7.171875 -12.25 C 6.941406 -12.925781 6.75 -13.519531 6.59375 -14.03125 C 6.445312 -13.539062 6.265625 -12.984375 6.046875 -12.359375 C 5.828125 -11.742188 5.617188 -11.140625 5.421875 -10.546875 Z M 3.765625 -5.71875 "/></g></g></g><g fill="#1f2122" fill-opacity="1"><g transform="translate(310.069444, 203.368378)"><g><path d="M 0.90625 0 L 0.90625 -0.21875 L 1.671875 -0.21875 C 2.222656 -0.21875 2.609375 -0.332031 2.828125 -0.5625 C 3.054688 -0.789062 3.171875 -1.234375 3.171875 -1.890625 L 3.171875 -13.328125 C 3.171875 -13.953125 3.054688 -14.378906 2.828125 -14.609375 C 2.609375 -14.835938 2.222656 -14.953125 1.671875 -14.953125 L 0.90625 -14.953125 L 0.90625 -15.171875 L 4.203125 -15.171875 L 12.734375 -2.1875 L 12.734375 -13.28125 C 12.734375 -13.9375 12.625 -14.378906 12.40625 -14.609375 C 12.195312 -14.835938 11.804688 -14.953125 11.234375 -14.953125 L 10.515625 -14.953125 L 10.515625 -15.171875 L 15.171875 -15.171875 L 15.171875 -14.953125 L 14.453125 -14.953125 C 13.878906 -14.953125 13.484375 -14.835938 13.265625 -14.609375 C 13.046875 -14.378906 12.9375 -13.9375 12.9375 -13.28125 L 12.9375 0 L 12.515625 0 L 3.375 -13.859375 L 3.375 -1.890625 C 3.375 -1.234375 3.476562 -0.789062 3.6875 -0.5625 C 3.90625 -0.332031 4.296875 -0.21875 4.859375 -0.21875 L 5.59375 -0.21875 L 5.59375 0 Z M 0.90625 0 "/></g></g></g><g fill="#1f2122" fill-opacity="1"><g transform="translate(333.929104, 203.368378)"><g><path d="M 0.90625 0 L 0.90625 -0.21875 L 1.484375 -0.21875 C 2.035156 -0.21875 2.421875 -0.332031 2.640625 -0.5625 C 2.859375 -0.789062 2.96875 -1.234375 2.96875 -1.890625 L 2.96875 -13.328125 C 2.96875 -13.953125 2.859375 -14.378906 2.640625 -14.609375 C 2.421875 -14.835938 2.035156 -14.953125 1.484375 -14.953125 L 0.90625 -14.953125 L 0.90625 -15.171875 L 6.453125 -15.171875 L 6.453125 -14.953125 L 5.90625 -14.953125 C 5.351562 -14.953125 4.96875 -14.835938 4.75 -14.609375 C 4.53125 -14.378906 4.421875 -13.9375 4.421875 -13.28125 L 4.421875 -1.890625 C 4.421875 -1.234375 4.53125 -0.789062 4.75 -0.5625 C 4.96875 -0.332031 5.351562 -0.21875 5.90625 -0.21875 L 6.453125 -0.21875 L 6.453125 0 Z M 0.90625 0 "/></g></g></g></svg>